HIERARCHY
ROOT Hips
{
  OFFSET -125.086 92.215 135.881
  CHANNELS 6 Xposition Yposition Zposition Zrotation Xrotation Yrotation
  JOINT LeftUpLeg
  {
    OFFSET 8.64259 1.95398 -2.38835
    CHANNELS 3 Zrotation Xrotation Yrotation
    JOINT LeftLeg
    {
      OFFSET 43.7702 0 0
      CHANNELS 3 Zrotation Xrotation Yrotation
      JOINT LeftFoot
      {
        OFFSET 40.6238 0 0
        CHANNELS 3 Zrotation Xrotation Yrotation
        JOINT LeftToeBase
        {
          OFFSET 12.7242 0 0
          CHANNELS 3 Zrotation Xrotation Yrotation
          End Site
          {
            OFFSET 0 0 0
          }
        }
      }
    }
  }
  JOINT RightUpLeg
  {
    OFFSET -8.2249 1.95398 -2.59336
    CHANNELS 3 Zrotation Xrotation Yrotation
    JOINT RightLeg
    {
      OFFSET 43.5653 0 0
      CHANNELS 3 Zrotation Xrotation Yrotation
      JOINT RightFoot
      {
        OFFSET 40.6238 0 0
        CHANNELS 3 Zrotation Xrotation Yrotation
        JOINT RightToeBase
        {
          OFFSET 12.7242 0 0
          CHANNELS 3 Zrotation Xrotation Yrotation
          End Site
          {
            OFFSET 0 0 0
          }
        }
      }
    }
  }
  JOINT Spine
  {
    OFFSET 0.165834 0.87714 6.61349
    CHANNELS 3 Zrotation Xrotation Yrotation
    JOINT Spine1
    {
      OFFSET 7.38963 1.71661e-005 0
      CHANNELS 3 Zrotation Xrotation Yrotation
      JOINT Spine2
      {
        OFFSET 11.9445 1.14441e-005 0
        CHANNELS 3 Zrotation Xrotation Yrotation
        JOINT Spine3
        {
          OFFSET 14.7254 4.19617e-005 0
          CHANNELS 3 Zrotation Xrotation Yrotation
          JOINT Spine4
          {
            OFFSET 10.9679 0 0
            CHANNELS 3 Zrotation Xrotation Yrotation
            JOINT RightShoulder
            {
              OFFSET 2.46616 -1.6653 3.69651
              CHANNELS 3 Zrotation Xrotation Yrotation
              JOINT RightArm
              {
                OFFSET 13.0012 0 0
                CHANNELS 3 Zrotation Xrotation Yrotation
                JOINT RightForeArm
                {
                  OFFSET 28.7848 1.52588e-005 0
                  CHANNELS 3 Zrotation Xrotation Yrotation
                  JOINT RightHand
                  {
                    OFFSET 26.5688 1.52588e-005 0
                    CHANNELS 3 Zrotation Xrotation Yrotation
                    End Site
                    {
                      OFFSET 0 0 0
                    }
                  }
                }
              }
            }
            JOINT LeftShoulder
            {
              OFFSET 2.38034 -1.29275 -3.7523
              CHANNELS 3 Zrotation Xrotation Yrotation
              JOINT LeftArm
              {
                OFFSET 16.3182 6.10352e-005 0
                CHANNELS 3 Zrotation Xrotation Yrotation
                JOINT LeftForeArm
                {
                  OFFSET 27.0901 0 0
                  CHANNELS 3 Zrotation Xrotation Yrotation
                  JOINT LeftHand
                  {
                    OFFSET 24.5451 1.52588e-005 0
                    CHANNELS 3 Zrotation Xrotation Yrotation
                    End Site
                    {
                      OFFSET 0 0 0
                    }
                  }
                }
              }
            }
            JOINT Neck
            {
              OFFSET 5.0226 -0.0266342 0
              CHANNELS 3 Zrotation Xrotation Yrotation
              JOINT Head
              {
                OFFSET 6.69363 2.86102e-005 0
                CHANNELS 3 Zrotation Xrotation Yrotation
                End Site
                {
                  OFFSET 0 0 0
                }
              }
            }
          }
        }
      }
    }
  }
}
MOTION
Frames:	18
Frame Time:	0.0416667
-77.5562 88.1255 81.7586 89.9321 47.8145 92.0188 -175.94 36.8868 89.4815 -26.4204 12.9663 -1.55618 47.9794 -4.89376 6.94805 42.2105 -1.14259 1.02164 172.1 8.70534 88.9298 -64.4216 -7.13621 -0.78708 51.8453 1.74255 11.3937 57.6957 -5.36461 -5.25535 -0.121158 9.176 -89.4472 8.52057 0.00270496 1.09309 -3.15084 0.0508022 1.09191 -25.6825 -0.325928 1.04338 -5.6699 -0.325937 1.04337 111.713 -57.6011 -68.6119 14.6981 -13.2719 -14.7653 6.18976 -28.084 -18.229 -8.61359 -0.328891 -0.778941 -76.3989 -47.0622 99.142 -33.6904 -11.0004 -20.0507 3.63984 38.4553 0.00699948 -0.130657 -0.285285 -14.2992 9.54205 0.785571 -6.09325 -13.4565 1.47984 7.58391 
-74.5883 88.4115 77.8557 83.6528 50.6656 97.1016 -174.805 40.8601 88.3412 -32.6075 15.1394 -2.57375 53.3297 -1.21668 7.12994 45.4112 -1.3599 1.7874 170.489 28.1451 90.3618 -76.7471 -7.89204 -0.419807 56.7253 0.567213 17.1694 56.3338 -4.64683 -2.40493 -0.200433 10.3587 -89.6376 6.16 -0.247152 0.71676 -5.51111 -0.215381 0.726939 -28.0455 -0.451154 0.609346 -8.03285 -0.451145 0.60935 112.023 -57.6991 -68.1889 12.6882 -9.76249 -7.50908 6.77723 -35.2009 -13.5465 -6.35635 -0.287534 0.0360714 -76.5994 -45.9086 98.8531 -30.7829 -6.82479 -19.1289 4.38832 23.889 -11.007 2.9072 -0.519845 -13.6436 15.3718 0.196794 -5.88852 -7.8251 1.49872 8.54294 
-72.1858 87.6646 74.0156 73.4049 53.3919 106.311 -176.27 47.6242 87.1016 -40.3711 15.8628 -1.46761 58.3734 2.90812 7.6678 52.8348 -1.41574 6.2308 170.964 46.578 91.2788 -70.9453 -13.3523 0.649254 64.5927 -0.861231 19.8209 62.5735 -4.50175 3.66388 -0.514292 11.236 -90.1473 4.39911 -1.08755 -0.278311 -7.27144 -1.09872 -0.230178 -29.8091 -0.953624 -0.592313 -9.79643 -0.953622 -0.592318 111.863 -56.1995 -68.1713 13.369 -7.91389 5.18888 5.96649 -31.1151 -13.9083 -10.4878 -0.530669 0.710975 -77.2447 -44.3413 97.8335 -30.108 -6.57675 -12.8389 2.7212 17.5456 -13.0672 0.785003 -0.383779 -15.0558 19.4875 0.115755 -7.09036 -1.65004 2.49229 11.0218 
-69.5976 84.8977 70.304 68.3737 54.0159 109.537 -177.157 53.1339 84.1778 -51.8989 14.2725 -0.0673171 62.7394 8.0684 12.463 60.2626 -0.9892 10.5207 175.45 60.9247 86.3243 -62.591 -8.3765 0.422799 64.7357 -1.07976 17.782 63.3582 -4.59161 3.85853 -0.572813 12.1964 -90.438 2.4744 -1.31464 -0.876909 -9.19613 -1.35196 -0.818214 -31.7323 -0.990334 -1.23147 -11.7196 -0.990339 -1.23147 111.558 -56.2893 -68.6235 16.4452 -4.26924 18.7708 4.16967 -24.7371 -15.3286 -12.94 -0.536144 -0.288124 -79.1069 -45.1477 94.8257 -31.0915 -7.858 -9.70037 1.00066 11.6295 -6.42811 0.757658 -0.394425 -15.4026 20.7925 -0.422181 -8.71176 5.46801 3.51341 13.8626 
-64.969 80.0636 65.0383 66.3101 56.3278 108.225 -175.118 55.9107 77.2546 -66.1479 14.1774 0.661978 67.4303 14.8829 20.6939 60.1364 -1.165 9.44147 -175.568 68.878 75.8693 -63.022 -10.9033 -1.21772 63.4969 -0.448641 18.0955 64.7414 -5.02038 2.75383 -0.367473 12.6114 -90.8372 1.64008 -1.05408 -1.66081 -10.0315 -1.12612 -1.61282 -32.5591 -0.506304 -1.90074 -12.5465 -0.506294 -1.90073 112.844 -58.9062 -67.2425 20.3605 -0.798881 17.8751 6.22848 -22.0228 -7.88611 -8.48277 -0.157205 -3.20327 -80.85 -47.7646 92.1727 -33.6725 -4.23348 -21.8633 -0.0109091 11.729 1.51735e-006 3.35322 -0.60188 -14.5683 16.419 -1.83286 -2.31806 13.1155 0.527436 10.8874 
-58.0223 75.4403 57.8663 70.18 56.9036 106.118 -177.101 52.9171 77.994 -79.7321 14.5623 2.50894 68.9542 20.638 30.7622 63.7166 -0.247707 13.8666 -175.915 68.836 80.5908 -79.043 -6.90015 -2.77782 69.4731 -3.27245 15.7818 53.4213 -3.67769 1.45817 0.0498744 12.1325 -91.1396 2.59989 -0.346194 -2.22873 -9.07291 -0.443918 -2.21135 -31.5927 0.339457 -2.22977 -11.5801 0.339459 -2.22977 110.97 -60.3851 -70.0443 14.8235 -5.68689 -11.8614 11.5959 -24.399 -3.51366 -2.98654 -0.046515 -4.3725 -81.9285 -48.6367 90.5539 -32.2174 2.32838 -43.3178 -0.390103 9.3787 -1.75322 9.93558 -1.04663 -13.2968 18.177 -1.49337 4.95484 9.79745 -2.31271 5.0068 
-50.3197 73.3713 49.9569 75.9841 55.5848 105.002 176.656 46.7901 85.4919 -91.2951 11.9798 4.31964 70.7081 20.6064 25.0565 72.4717 2.1848 21.855 174.416 62.2521 95.2677 -87.9665 -12.8006 -2.14472 71.324 -10.0004 -2.07967 60.3682 -4.96979 -0.237182 -0.287687 11.0299 -91.0792 4.79771 -1.01757 -2.09533 -6.87446 -1.10877 -2.04855 -29.3966 -0.340979 -2.30416 -9.38392 -0.340973 -2.30417 101.798 -51.0463 -82.8616 17.6488 -2.28266 -56.1461 3.30333 -21.9986 -14.5047 -7.36493 -0.205325 -2.03339 -84.748 -41.3947 85.2028 -24.1841 -3.17268 -67.3595 6.10883 15.0361 -14.3653 19.5384 -1.22893 -10.312 22.1133 0.152071 0.45831 -5.94455 -0.227723 9.44278 
-40.9386 77.0037 39.9891 75.701 50.9002 102.988 178.846 34.1368 85.2288 -84.5914 13.9226 4.22372 68.8173 17.1582 22.176 76.9014 3.39379 24.1614 177.337 50.5832 93.9884 -85.2389 -14.3127 -2.59849 76.761 -13.073 -2.2759 62.8955 -5.50808 -0.764911 -0.130941 9.48561 -90.6279 7.89838 -0.534978 -1.20928 -3.773 -0.587685 -1.18457 -26.3039 -0.146832 -1.31414 -6.29121 -0.146833 -1.31414 98.3907 -27.3944 -90.3634 18.5938 14.0209 -80.4609 -11.7372 -18.146 -35.0004 -8.5901 -0.269881 -1.56404 -85.3566 -29.245 81.8186 -20.3629 -16.3125 -84.563 22.1258 18.529 -36.2894 17.1979 -1.10042 -10.277 24.9304 0.0735225 -4.26911 -20.3729 -0.239862 12.867 
-26.5158 88.6427 24.8025 76.1158 46.7076 100.151 -177.465 13.3448 88.1914 -56.243 13.7033 3.55129 47.4077 -3.25259 -0.614628 75.8549 -2.71043 4.49683 179.164 26.5977 88.9028 -60.2905 -20.6766 -3.3499 62.9953 -1.74915 11.3166 65.3253 -4.85609 3.81648 0.0652793 7.65459 -89.9641 11.5645 0.146726 0.0564341 -0.106475 0.149063 0.0499126 -22.6417 0.122995 0.0979286 -2.62902 0.122976 0.0979174 100.276 -13.4461 -87.4244 14.4685 28.5869 -81.6276 -15.2888 -13.373 -40.9257 -6.8026 -0.095443 -3.8324 -83.8843 -22.4897 83.4249 -16.605 -28.4538 -84.3924 29.7445 16.4456 -51.9764 21.2224 -1.27912 -10.0563 2.26209 1.3233 -9.60849 -13.035 1.62221 14.8984 
-10.786 102.383 10.0132 78.681 52.6381 97.7577 -178.635 15.5482 90.4331 -59.4739 13.4195 4.90002 33.7688 -10.0052 -9.66801 22.5273 -1.13802 10.9225 177.144 -2.55716 85.1912 -18.4334 -15.7011 -3.00006 23.2988 9.40002 34.9036 26.2709 0.660965 -1.72042 -0.0729817 6.88485 -89.7763 13.1052 -0.0375076 0.443283 1.43423 -0.0179381 0.444487 -21.1002 -0.169006 0.411511 -1.08749 -0.168972 0.411521 102.972 -12.3062 -79.7853 6.23313 38.6082 -67.5909 -10.3932 -4.91065 -34.7008 -7.79894 -0.0608263 -4.62285 -81.8578 -24.606 88.2162 -9.94438 -33.7729 -72.3794 21.5683 13.052 -42.9697 24.3139 -0.878988 -7.67174 -19.4024 1.25466 -10.8433 -6.99071 0.608157 12.6656 
-0.0380027 112.354 -1.16171 86.7211 50.7334 93.4411 -177.474 30.4434 92.1576 -66.0256 15.5098 3.02762 39.8445 -7.59784 -5.42142 18.2907 -1.29627 10.6165 174.713 0.209309 89.9383 -55.9322 -22.9542 -2.89797 25.871 11.2576 24.9535 -5.68273 8.02732 -5.4679 0.387766 8.06646 -89.9605 10.7443 0.791034 0.0268565 -0.926359 0.79145 -0.00798799 -23.4638 0.746369 0.263361 -3.45113 0.746383 0.263363 102.854 -11.0501 -80.2705 -21.1171 35.9297 -25.9946 1.07345 15.1231 -23.2252 -9.07545 -0.10984 -3.99816 -81.3093 -22.2945 89.0299 12.4835 -36.0624 -32.4774 9.29788 12.5213 -17.5121 18.2676 -0.66313 -7.46616 -18.3501 2.61579 -14.3502 -4.1053 2.34219 16.2587 
10.0071 117.466 -11.801 88.2328 42.7421 94.5571 -179.504 38.1268 95.5529 -47.5001 17.5847 3.57541 37.7432 -9.16395 -7.26881 26.5646 -0.580766 5.53634 179.248 18.2155 82.5747 -102.514 -25.4325 -4.31639 35.338 9.32802 14.0812 4.3091 7.70841 -11.5237 0.262719 9.12057 -89.7639 8.63117 0.628724 0.423256 -3.03967 0.646729 0.395169 -25.5751 0.472454 0.592644 -5.56242 0.472453 0.592639 101.066 -16.318 -84.7438 -28.0718 8.71334 0.807316 7.48286 7.14916 -10.4734 -7.15963 -0.101915 -3.74045 -80.7042 -23.6323 90.558 17.5489 -23.9347 11.5278 2.82546 19.6424 -1.2922 9.3632 -0.591138 -9.30293 -15.9229 6.24409 -22.9526 -2.7958 6.57526 27.4187 
19.6547 116.384 -23.4407 90.7433 34.8777 97.0941 -179.872 37.2346 101.541 -30.248 14.3905 5.15123 40.9622 -8.13911 -4.58399 30.8917 -0.0752028 -1.08615 176.088 39.5242 86.1169 -113.704 -24.6595 -3.67428 43.1265 6.0817 9.84733 25.3066 1.88116 -10.1081 0.538351 10.1887 -89.8499 6.49512 1.13919 0.254224 -5.17534 1.1493 0.203822 -27.7136 1.01011 0.584869 -7.70096 1.01011 0.584868 101.367 -27.6177 -83.8589 -20.5109 -0.70273 18.7335 8.47544 -11.6391 -4.68027 -1.98529 -0.0423389 -3.84734 -77.8026 -31.6062 96.9139 0.161814 -22.4279 35.4057 5.38713 19.4888 0.00860689 3.01812 -0.424483 -11.4549 -11.2172 7.54908 -24.1231 -4.39247 8.42373 31.7439 
30.5398 108.167 -35.6478 95.3006 33.7838 97.8642 -174.151 33.215 104.198 -19.6168 7.08308 2.08721 35.1526 -11.0608 -7.36223 39.255 -0.773612 -3.96059 162.626 42.7991 95.6693 -78.739 -25.2862 2.09152 48.9045 4.72934 18.2219 47.0263 -2.94455 -5.49324 0.558976 11.0269 -90.185 4.82118 1.04088 -0.376692 -6.84942 1.02327 -0.422144 -29.388 1.10595 -0.0464291 -9.37538 1.10596 -0.0464239 103.823 -35.8231 -79.0673 -3.39966 1.52085 41.8106 4.95115 -4.97253 -4.98589 -4.66546 -0.0832581 -3.4438 -73.6274 -41.4663 103.997 -16.8123 -22.1281 46.4274 4.09998 5.68148 0.0111884 6.49076 -0.405575 -8.47427 -12.0401 7.73242 -21.0522 -0.981576 9.26978 31.4738 
43.0476 93.1541 -46.7527 101.354 39.8138 91.6448 -170.72 33.8914 99.7295 -41.5508 13.5473 0.0161793 49.7575 -2.2236 5.4159 42.6948 -1.30835 -2.61946 164.954 39.5288 93.9236 -40.0577 -20.9661 8.47839 39.1437 8.31223 24.8371 85.0261 -8.41069 1.93039 -0.560548 11.6548 -89.8293 3.56084 -1.05217 0.331333 -8.10998 -1.0366 0.377309 -30.6453 -1.10306 -0.000175084 -10.6327 -1.10303 -0.000168921 111.471 -50.1884 -67.6556 9.02501 9.965 42.3445 0.531618 5.07038 -1.56789 -3.68244 -0.0454332 -4.76132 -72.6618 -49.0877 104.851 -21.1178 -22.8169 28.0969 6.40732 6.14128 0.0125398 11.9643 -0.642019 -8.62964 -2.23143 7.45882 -26.2238 -7.37019 9.50314 35.9667 
54.2173 76.0452 -55.3032 104.991 54.2379 83.032 -175.837 46.4394 90.8014 -85.0659 21.0016 2.93616 65.8613 13.3529 22.6025 53.3266 -1.18822 7.05412 156.818 52.9252 94.3577 -68.9324 -23.3881 5.70783 55.0763 1.28671 8.22887 42.4937 -1.9912 0.444468 -1.67063 11.2605 -90.088 4.35854 -3.37524 -0.127446 -7.30795 -3.37755 0.0213914 -29.8764 -3.18078 -1.13699 -9.86377 -3.18078 -1.137 127.95 -64.0779 -48.4917 14.5973 5.77262 4.73842 4.41295 6.89238 -0.0604664 2.0662 -0.0855189 -7.32018 -78.5699 -47.3288 95.7883 -27.4275 -12.383 -25.6289 5.29627 10.5207 0.90994 10.6615 -0.634646 -9.13096 9.08139 2.03878 -21.5789 -10.6754 4.91121 29.1242 
60.7036 66.079 -61.2168 114.852 55.7686 75.1232 179.357 52.5229 92.6075 -111.659 18.4189 3.99568 63.8956 11.0539 16.2453 66.2181 -0.642361 11.9397 155.539 57.5561 100.717 -97.2436 -22.3748 -0.0351143 61.2307 -4.70722 -5.66325 52.1915 -3.70917 -0.588829 -1.44465 11.7435 -90.4673 3.37139 -3.07182 -0.928041 -8.29617 -3.10968 -0.791832 -30.8517 -2.65086 -1.80883 -10.839 -2.65086 -1.80883 107.972 -55.3021 -73.6843 12.9018 -3.57907 -39.098 10.1236 5.24965 -20.8375 -0.114707 -0.0368676 -7.20928 -86.6085 -35.1505 80.8269 -23.7393 -8.56783 -68.3634 10.9262 18.7576 -13.3178 13.9507 -0.917922 -10.1342 11.7858 0.507487 -11.7304 -11.5227 2.13269 17.6265 
63.962 65.4877 -66.5147 108.632 49.8325 77.9581 -175.554 53.8299 88.867 -117.142 18.1952 3.9559 60.8985 7.80846 14.5054 66.643 -0.381358 13.1634 162.55 59.7631 97.4532 -103.587 -20.6529 -1.93309 63.9554 -5.33596 -1.32216 55.9859 -4.35882 -0.808057 -0.804084 11.6739 -90.5146 3.51664 -1.81174 -1.01136 -8.15332 -1.8545 -0.930637 -30.6925 -1.42404 -1.50914 -10.6799 -1.42406 -1.50914 102.267 -41.29 -81.9684 18.6481 3.22118 -60.736 4.63566 3.64243 -42.0617 -3.20973 -0.00402689 -6.03108 -85.9371 -31.1854 81.1875 -24.0108 -8.66363 -77.717 18.6486 14.0689 -40.923 24.5589 -1.27953 -9.4445 5.18856 1.10429 -0.267086 -6.22427 0.804611 13.7825 
